<?xml version="1.0" standalone="no"?>
<!DOCTYPE svg PUBLIC "-//W3C//DTD SVG 20010904//EN"
 "http://www.w3.org/TR/2001/REC-SVG-20010904/DTD/svg10.dtd">
<svg version="1.0" xmlns="http://www.w3.org/2000/svg"
 width="864.000000pt" height="864.000000pt" viewBox="0 0 864.000000 864.000000"
 preserveAspectRatio="xMidYMid meet">
<metadata>
Created by potrace 1.11, written by Peter Selinger 2001-2013
</metadata>
<g transform="translate(0.000000,864.000000) scale(0.100000,-0.100000)"
fill="#000000" stroke="none">
<path d="M5895 7045 c-93 -21 -179 -84 -217 -159 -12 -23 -20 -41 -19 -41 1 0
-2 -11 -7 -25 -9 -24 -18 -78 -27 -160 -13 -122 -43 -191 -97 -225 -9 -5 -65
-45 -124 -87 -133 -95 -108 -77 -294 -205 -149 -102 -351 -249 -397 -289 -11
-10 -41 -35 -64 -54 -116 -95 -329 -327 -329 -359 0 -6 -4 -11 -9 -11 -9 0
-62 -112 -86 -183 -59 -176 18 -425 179 -581 50 -48 181 -140 222 -156 21 -8
27 -29 40 -140 5 -46 13 -98 19 -124 2 -12 7 -41 10 -66 5 -43 8 -64 20 -127
3 -16 8 -44 11 -63 3 -19 9 -51 14 -70 4 -19 12 -57 16 -85 4 -27 8 -52 9 -55
2 -7 19 -93 21 -105 1 -5 3 -12 4 -15 1 -3 3 -14 5 -25 6 -34 14 -79 18 -95 5
-18 15 -60 28 -115 5 -22 11 -51 14 -65 2 -14 16 -70 30 -125 14 -55 28 -107
30 -115 21 -84 86 -289 105 -335 54 -132 81 -193 118 -265 45 -86 137 -234
176 -281 11 -14 31 -39 44 -55 40 -54 140 -152 236 -232 107 -90 357 -215 469
-236 12 -2 40 -8 62 -14 51 -13 123 -23 202 -27 57 -3 109 -25 133 -55 7 -9
46 -19 96 -26 68 -9 152 38 201 113 9 14 38 30 72 40 84 26 277 125 356 184
128 95 265 246 349 387 82 136 171 349 191 457 4 22 10 44 13 50 4 5 8 19 9
30 2 11 8 43 13 70 6 28 13 73 15 100 3 28 7 57 10 65 22 77 22 710 0 924 -3
22 -7 85 -10 140 -3 56 -7 110 -9 121 -2 11 -7 65 -11 120 -3 55 -8 111 -10
125 -4 23 -12 97 -21 195 -4 45 -13 119 -19 152 -3 17 12 38 62 85 133 128
217 279 239 428 7 51 7 173 0 209 -29 138 -145 298 -286 394 -25 17 -46 34
-48 39 -2 4 -8 8 -12 8 -5 0 -26 12 -47 26 -82 56 -368 187 -548 250 -38 14
-79 29 -90 34 -11 5 -76 28 -145 50 -69 23 -170 57 -225 76 -114 40 -128 45
-135 46 -22 4 -143 60 -153 70 -20 22 -101 215 -112 269 -33 159 -148 231
-310 194z m113 -307 c32 -100 99 -250 114 -256 5 -2 8 -8 8 -14 0 -24 83 -86
152 -113 40 -16 75 -30 78 -31 5 -1 32 -11 65 -24 11 -4 133 -45 270 -90 221
-73 367 -125 500 -178 109 -44 329 -164 403 -220 75 -58 140 -130 172 -191 22
-42 30 -146 18 -211 -5 -25 -10 -50 -12 -57 -1 -7 -5 -16 -9 -19 -4 -4 -7 -15
-7 -24 0 -10 -7 -23 -15 -30 -9 -7 -13 -15 -10 -18 3 -3 -12 -26 -32 -51 -20
-25 -38 -48 -40 -50 -2 -2 -27 12 -55 32 -47 32 -119 68 -133 67 -3 -1 -18 6
-33 14 -51 28 -292 81 -417 91 -22 2 -67 7 -100 11 -33 4 -177 8 -320 8 -292
1 -451 -10 -610 -40 -11 -3 -36 -7 -55 -10 -19 -3 -73 -15 -120 -26 -47 -11
-98 -22 -115 -25 -16 -3 -36 -10 -42 -15 -7 -6 -13 -8 -13 -5 0 5 -125 -31
-264 -78 -126 -41 -355 -141 -452 -196 -138 -79 -219 -144 -273 -217 l-19 -26
-46 38 c-71 58 -103 96 -133 156 -79 162 -61 280 70 455 122 164 336 334 865
690 292 197 336 234 376 313 22 42 41 100 52 157 2 11 7 61 10 110 8 120 24
149 88 162 11 2 22 6 25 8 16 16 30 -7 59 -97z m803 -1572 c115 -7 232 -21
341 -41 76 -15 243 -62 284 -82 l52 -24 7 -62 c8 -63 9 -81 19 -177 3 -30 8
-65 10 -78 3 -12 7 -55 11 -95 3 -39 7 -88 10 -107 3 -19 7 -69 10 -110 3 -41
8 -95 10 -120 2 -25 7 -83 10 -130 3 -47 8 -111 10 -142 3 -31 7 -130 10 -219
3 -89 6 -163 7 -165 4 -4 0 -244 -6 -359 -5 -93 -10 -141 -21 -205 -3 -14 -7
-41 -10 -60 -3 -19 -8 -42 -10 -50 -2 -8 -7 -30 -10 -49 -11 -65 -87 -277
-128 -356 -35 -68 -94 -165 -132 -214 -18 -23 -179 -185 -205 -206 -79 -63
-213 -132 -347 -178 -51 -17 -81 -34 -100 -57 -14 -18 -33 -38 -40 -45 -7 -8
-13 -18 -13 -24 0 -17 -9 -13 -49 18 -55 44 -105 59 -211 65 -174 9 -354 69
-508 169 -95 61 -104 69 -210 176 -163 165 -310 414 -397 676 -47 139 -150
542 -170 660 -2 11 -4 22 -5 25 -1 3 -3 10 -4 15 -1 6 -5 24 -9 40 -3 17 -9
44 -12 60 -11 66 -17 92 -26 130 -5 22 -11 54 -14 70 -2 17 -7 44 -10 60 -13
68 -26 142 -30 165 -4 29 -13 84 -20 120 -2 14 -7 45 -10 70 -3 25 -8 52 -10
60 -2 8 -7 39 -10 69 -4 30 -9 63 -11 75 -2 12 -7 44 -10 72 -5 48 -3 53 28
82 47 45 127 95 248 156 92 45 184 88 200 90 7 2 131 46 155 56 18 8 85 30
110 37 129 34 246 64 270 68 17 3 37 8 45 10 8 2 31 7 50 9 19 3 46 8 60 11
14 3 41 7 60 10 19 3 53 7 75 10 61 9 128 15 260 21 66 4 121 7 122 8 4 3 175
-2 274 -8z"/>
<path d="M2507 6154 c-1 -1 -34 -4 -73 -7 -227 -20 -441 -120 -569 -266 -16
-19 -37 -42 -45 -50 -20 -21 -70 -99 -70 -107 0 -4 -6 -15 -14 -23 -11 -13
-103 -218 -121 -271 -1 -3 -5 -14 -10 -25 -4 -11 -36 -94 -71 -185 -36 -91
-69 -174 -73 -185 -5 -11 -33 -83 -62 -160 -29 -77 -56 -144 -61 -149 -4 -6
-8 -16 -8 -24 0 -8 -6 -28 -14 -45 -8 -18 -31 -75 -51 -127 -19 -52 -40 -104
-44 -115 -5 -11 -23 -56 -39 -100 -55 -143 -143 -369 -152 -390 -9 -23 -23
-58 -24 -65 -5 -19 -61 -157 -68 -164 -4 -6 -8 -16 -8 -24 0 -8 -6 -28 -14
-45 -8 -18 -49 -120 -91 -227 -43 -107 -94 -231 -115 -275 -89 -190 -103 -291
-52 -399 32 -68 53 -96 120 -160 168 -159 465 -320 792 -429 99 -33 250 -78
275 -82 11 -2 48 -10 83 -19 34 -9 82 -21 105 -25 23 -5 76 -16 117 -26 96
-21 97 -21 150 -30 25 -4 52 -8 60 -10 40 -7 119 -18 149 -21 19 -2 48 -5 65
-8 155 -23 494 -24 611 -2 11 2 41 7 68 10 26 4 58 11 72 16 14 5 25 8 25 6 0
-6 125 40 167 62 82 43 153 135 168 217 2 17 7 40 9 53 3 13 8 85 11 160 7
162 12 240 20 342 12 162 16 208 20 285 3 44 7 109 10 145 5 72 13 186 20 300
3 41 7 104 10 140 6 84 17 240 30 430 3 36 7 101 10 145 3 44 7 105 10 135 3
30 7 96 10 146 3 50 7 113 10 140 2 27 7 87 10 134 3 47 8 112 11 145 23 308
23 362 0 470 -9 42 -39 126 -47 131 -5 3 -9 14 -9 24 0 10 -3 20 -7 22 -5 2
-25 29 -46 60 -66 98 -198 213 -327 287 -167 96 -409 182 -575 206 -27 4 -59
9 -70 12 -35 7 -282 22 -288 17z m226 -229 c81 -9 119 -16 197 -37 41 -10 82
-21 90 -23 63 -14 291 -120 332 -154 7 -6 40 -32 73 -58 33 -26 81 -70 107
-98 50 -53 113 -167 125 -225 9 -44 9 -219 -1 -330 -8 -99 -14 -185 -21 -290
-3 -41 -7 -104 -10 -140 -3 -36 -7 -99 -10 -140 -3 -41 -7 -102 -10 -135 -3
-33 -7 -100 -10 -150 -3 -49 -8 -110 -10 -135 -2 -25 -7 -96 -11 -159 -3 -63
-8 -122 -9 -130 -2 -9 -4 -24 -4 -33 -2 -41 -301 -54 -541 -23 -171 22 -237
32 -360 56 -58 12 -114 23 -125 24 -11 2 -20 4 -20 5 0 1 -9 3 -20 5 -11 2
-31 6 -45 9 -14 3 -34 8 -45 11 -11 2 -40 9 -65 16 -25 6 -52 12 -60 14 -8 2
-35 9 -60 16 -25 7 -47 13 -50 14 -3 0 -30 8 -60 18 -30 9 -59 17 -65 18 -58
11 -368 134 -445 177 -36 20 -75 40 -87 46 -13 6 -23 14 -23 19 0 4 -6 7 -14
7 -28 0 -86 65 -86 97 0 36 23 116 60 208 16 39 39 99 53 135 77 201 140 359
153 387 8 17 14 34 14 38 0 4 6 21 14 38 8 18 35 86 61 152 106 273 198 475
216 475 5 0 9 6 9 13 0 22 135 143 201 180 84 46 186 77 279 84 41 3 76 6 78
8 4 3 150 -3 205 -10z m-1417 -1946 c13 -21 248 -157 284 -164 3 0 27 -11 54
-23 27 -12 54 -22 60 -22 7 0 16 -4 22 -9 33 -29 496 -165 699 -205 11 -2 54
-11 95 -19 41 -9 91 -19 110 -22 19 -3 53 -10 75 -15 22 -4 60 -11 85 -14 25
-3 56 -8 70 -10 14 -3 52 -7 85 -11 33 -4 76 -9 95 -11 19 -3 87 -7 150 -10
63 -3 120 -5 125 -6 6 0 58 2 118 6 l107 6 -4 -27 c-3 -16 -7 -75 -11 -133 -4
-58 -8 -127 -11 -155 -2 -27 -6 -90 -9 -140 -3 -49 -7 -112 -9 -140 -2 -27 -7
-99 -11 -159 -9 -136 -8 -131 -25 -152 -18 -21 -101 -58 -155 -69 -22 -5 -42
-9 -45 -10 -107 -26 -341 -36 -505 -21 -44 4 -105 9 -135 12 -30 2 -66 7 -80
10 -14 2 -43 6 -65 9 -22 2 -51 7 -65 10 -14 3 -38 7 -55 9 -35 5 -94 18 -215
47 -47 12 -96 23 -110 26 -54 9 -332 93 -375 113 -11 5 -63 25 -115 46 -109
42 -245 109 -255 124 -3 6 -11 8 -16 5 -5 -4 -9 -2 -9 2 0 5 -17 17 -37 28
-21 11 -49 30 -63 43 -14 12 -28 22 -32 22 -5 0 -16 8 -26 18 -11 9 -37 33
-59 53 -82 73 -106 133 -79 192 15 33 107 265 190 482 25 66 51 128 56 137 6
10 10 23 10 28 0 6 8 30 19 53 10 23 21 50 24 60 7 19 32 23 43 6z m-223
-1256 c82 -54 302 -173 321 -173 4 0 25 -9 49 -19 107 -48 382 -138 477 -157
14 -3 39 -9 55 -14 34 -11 23 -8 250 -55 93 -20 186 -37 205 -40 93 -11 138
-17 165 -21 136 -22 489 -22 625 0 139 21 145 23 187 37 45 15 52 6 28 -39
-30 -56 -93 -83 -275 -117 -120 -23 -482 -24 -606 -1 -10 2 -45 7 -78 11 -32
3 -68 8 -80 10 -11 2 -37 6 -56 9 -19 3 -45 8 -56 10 -12 2 -38 7 -57 10 -20
3 -94 20 -164 37 -70 17 -135 32 -143 34 -8 2 -15 4 -15 5 0 1 -11 3 -24 6
-13 2 -49 12 -80 21 -31 9 -59 18 -63 19 -5 1 -9 2 -10 4 -2 1 -10 3 -18 5
-31 7 -265 88 -275 95 -5 4 -21 11 -35 15 -50 14 -280 135 -357 186 -90 60
-188 151 -210 192 -15 29 -18 65 -9 102 2 11 5 21 5 23 1 2 34 -26 74 -63 39
-37 116 -96 170 -132z"/>
<path d="M2119 5441 c-28 -23 -33 -34 -32 -67 2 -65 60 -100 126 -75 59 23 56
137 -3 156 -45 14 -59 12 -91 -14z"/>
<path d="M2384 5309 c-51 -19 -70 -94 -34 -137 55 -66 169 -12 152 73 -9 48
-71 82 -118 64z"/>
<path d="M1923 5283 c-13 -2 -32 -16 -43 -30 -58 -74 26 -171 111 -127 58 29
57 119 -1 149 -16 8 -33 14 -37 14 -4 -1 -18 -4 -30 -6z"/>
<path d="M2162 5168 c-60 -29 -70 -89 -23 -135 23 -24 35 -28 64 -25 92 11
110 124 26 166 -25 13 -32 12 -67 -6z"/>
<path d="M2424 5032 c-28 -4 -62 -41 -67 -72 -5 -31 16 -76 42 -90 88 -46 178
68 106 134 -28 26 -49 33 -81 28z"/>
<path d="M1873 4997 c-26 -21 -31 -29 -38 -67 -6 -33 29 -76 69 -86 80 -20
139 79 84 140 -32 35 -79 40 -115 13z"/>
<path d="M2703 4915 c-57 -24 -71 -92 -28 -139 30 -32 81 -35 117 -6 76 59 -1
182 -89 145z"/>
<path d="M2142 4833 c-29 -29 -34 -56 -17 -98 13 -31 36 -44 76 -45 55 0 84
28 84 82 0 54 -21 78 -75 85 -33 5 -43 1 -68 -24z"/>
<path d="M2459 4761 c-50 -50 -33 -121 35 -145 48 -17 118 40 110 89 -13 81
-90 111 -145 56z"/>
<path d="M2976 4768 c-65 -58 -20 -156 67 -150 79 5 102 128 30 161 -37 17
-69 13 -97 -11z"/>
<path d="M1928 4744 c-62 -33 -49 -134 20 -153 78 -22 135 47 101 122 -20 44
-73 58 -121 31z"/>
<path d="M2737 4616 c-15 -14 -28 -32 -28 -41 -1 -8 -2 -21 -3 -27 -6 -43 51
-91 100 -82 38 6 74 47 74 84 0 40 -38 81 -81 86 -27 4 -41 0 -62 -20z"/>
<path d="M3229 4603 c-29 -4 -59 -48 -59 -86 0 -29 32 -73 60 -82 32 -10 89
14 104 43 17 35 10 81 -16 104 -12 10 -25 18 -29 18 -4 0 -13 2 -21 3 -7 2
-25 2 -39 0z"/>
<path d="M2952 4492 c-15 -12 -25 -33 -29 -59 -4 -34 -1 -44 21 -66 70 -70
179 -2 142 88 -23 55 -87 73 -134 37z"/>
<path d="M2709 4331 c-16 -16 -29 -39 -29 -50 0 -75 79 -122 136 -81 74 53 36
160 -57 160 -11 0 -34 -13 -50 -29z"/>
<path d="M3255 4331 c-31 -13 -47 -37 -50 -76 -9 -93 124 -127 162 -42 13 29
5 82 -16 100 -21 19 -71 28 -96 18z"/>
<path d="M2440 4237 c-83 -42 -44 -172 48 -161 78 9 106 103 46 151 -33 26
-57 29 -94 10z"/>
<path d="M2964 4182 c-21 -15 -44 -57 -44 -83 0 -14 11 -38 25 -53 54 -58 150
-20 148 60 -1 49 -35 84 -82 84 -20 0 -41 -4 -47 -8z"/>
<path d="M2635 4087 c-36 -30 -43 -85 -16 -116 43 -49 118 -43 144 12 42 87
-56 166 -128 104z"/>
<path d="M3194 4075 c-75 -31 -60 -141 22 -161 82 -21 138 107 67 153 -34 23
-52 24 -89 8z"/>
</g>
</svg>
